# Blender v2.64 (sub 0) OBJ File: ''
# www.blender.org
v -1.662950 -56.295151 -0.000009
v -1.662950 -68.805199 -0.000011
v 1.662950 -68.805199 -0.000011
v 1.662950 -56.295151 -0.000009
v -1.662950 -43.785149 -0.000007
v 1.662950 -43.785149 -0.000007
v -1.662950 -31.275101 -0.000005
v 1.662950 -31.275101 -0.000005
v -1.662950 -18.765051 -0.000003
v 1.662950 -18.765051 -0.000003
v -1.662950 -6.255000 -0.000001
v 1.662950 -6.255000 -0.000001
v -1.662950 6.255000 0.000001
v 1.662950 6.255000 0.000001
v -1.662950 18.765051 0.000003
v 1.662950 18.765051 0.000003
v -1.662950 31.275101 0.000005
v 1.662950 31.275101 0.000005
v -1.662950 43.785149 0.000007
v 1.662950 43.785149 0.000007
v -1.662950 56.295151 0.000009
v 1.662950 56.295151 0.000009
v -1.662950 68.805199 0.000011
v 1.662950 68.805199 0.000011
vt 0.000000 0.090900
vt 0.000000 0.000000
vt 1.000000 0.000000
vt 1.000000 0.090900
vt 0.000000 0.181800
vt 1.000000 0.181800
vt 0.000000 0.272700
vt 1.000000 0.272700
vt 0.000000 0.363600
vt 1.000000 0.363600
vt 0.000000 0.454500
vt 1.000000 0.454500
vt 0.000000 0.545500
vt 1.000000 0.545500
vt 0.000000 0.636400
vt 1.000000 0.636400
vt 0.000000 0.727300
vt 1.000000 0.727300
vt 0.000000 0.818200
vt 1.000000 0.818200
vt 0.000000 0.909100
vt 1.000000 0.909100
vt 0.000000 1.000000
vt 1.000000 1.000000
vn 0.000000 0.000000 1.000000
s 1
f 1/1/1 2/2/1 3/3/1
f 1/1/1 3/3/1 4/4/1
f 5/5/1 1/1/1 4/4/1
f 5/5/1 4/4/1 6/6/1
f 7/7/1 5/5/1 6/6/1
f 7/7/1 6/6/1 8/8/1
f 9/9/1 7/7/1 8/8/1
f 9/9/1 8/8/1 10/10/1
f 11/11/1 9/9/1 10/10/1
f 11/11/1 10/10/1 12/12/1
f 13/13/1 11/11/1 12/12/1
f 13/13/1 12/12/1 14/14/1
f 15/15/1 13/13/1 14/14/1
f 15/15/1 14/14/1 16/16/1
f 17/17/1 15/15/1 16/16/1
f 17/17/1 16/16/1 18/18/1
f 19/19/1 17/17/1 18/18/1
f 19/19/1 18/18/1 20/20/1
f 21/21/1 19/19/1 20/20/1
f 21/21/1 20/20/1 22/22/1
f 23/23/1 21/21/1 22/22/1
f 23/23/1 22/22/1 24/24/1
